HIERARCHY
ROOT Hips
{
 OFFSET 0.000000 0.000000 0.000000
 CHANNELS 6 Xposition Yposition Zposition Yrotation Xrotation Zrotation
 JOINT Chest
 {
  OFFSET 0.000000 12.953391 -0.028419
  CHANNELS 3 Yrotation Xrotation Zrotation
  JOINT Chest2
  {
   OFFSET 0.000000 10.280254 0.051622
   CHANNELS 3 Yrotation Xrotation Zrotation
   JOINT Chest3
   {
    OFFSET 0.000000 9.287180 0.000000
    CHANNELS 3 Yrotation Xrotation Zrotation
    JOINT Chest4
    {
     OFFSET 0.000000 9.287180 0.000000
     CHANNELS 3 Yrotation Xrotation Zrotation
     JOINT Neck
     {
      OFFSET 0.000000 13.296264 0.000000
      CHANNELS 3 Yrotation Xrotation Zrotation
      JOINT Head
      {
       OFFSET 0.000000 8.959264 0.099003
       CHANNELS 3 Yrotation Xrotation Zrotation
       End Site
       {
        OFFSET 0.000000 17.121337 0.039303
       }
      }
     }
     JOINT RightCollar
     {
      OFFSET -3.193511 7.451388 0.000000
      CHANNELS 3 Yrotation Xrotation Zrotation
      JOINT RightShoulder
      {
       OFFSET -15.792092 0.000000 0.000000
       CHANNELS 3 Yrotation Xrotation Zrotation
       JOINT RightElbow
       {
        OFFSET -31.151839 0.000000 0.000000
        CHANNELS 3 Yrotation Xrotation Zrotation
        JOINT RightWrist
        {
         OFFSET -25.536298 0.000000 0.002321
         CHANNELS 3 Yrotation Xrotation Zrotation
         End Site
         {
          OFFSET -19.133213 0.000000 0.000000
         }
        }
       }
      }
     }
     JOINT LeftCollar
     {
      OFFSET 3.193511 7.451388 0.000000
      CHANNELS 3 Yrotation Xrotation Zrotation
      JOINT LeftShoulder
      {
       OFFSET 15.792092 0.000000 0.000000
       CHANNELS 3 Yrotation Xrotation Zrotation
       JOINT LeftElbow
       {
        OFFSET 31.151839 0.000000 0.000000
        CHANNELS 3 Yrotation Xrotation Zrotation
        JOINT LeftWrist
        {
         OFFSET 25.536298 0.000000 0.002321
         CHANNELS 3 Yrotation Xrotation Zrotation
         End Site
         {
          OFFSET 19.133213 0.000000 0.000000
         }
        }
       }
      }
     }
    }
   }
  }
 }
 JOINT RightHip
 {
  OFFSET -10.745749 0.139252 0.014209
  CHANNELS 3 Yrotation Xrotation Zrotation
  JOINT RightKnee
  {
   OFFSET 0.000000 -43.743899 -0.006071
   CHANNELS 3 Yrotation Xrotation Zrotation
   JOINT RightAnkle
   {
    OFFSET 0.000000 -43.214199 0.089931
    CHANNELS 3 Yrotation Xrotation Zrotation
    JOINT RightToe
    {
     OFFSET 0.000000 -9.699830 19.151588
     CHANNELS 3 Yrotation Xrotation Zrotation
     End Site
     {
      OFFSET 0.000000 -1.292898 4.893873
     }
    }
   }
  }
 }
 JOINT LeftHip
 {
  OFFSET 10.745749 0.139252 0.014209
  CHANNELS 3 Yrotation Xrotation Zrotation
  JOINT LeftKnee
  {
   OFFSET 0.000000 -43.743899 -0.006071
   CHANNELS 3 Yrotation Xrotation Zrotation
   JOINT LeftAnkle
   {
    OFFSET 0.000000 -43.214199 0.089931
    CHANNELS 3 Yrotation Xrotation Zrotation
    JOINT LeftToe
    {
     OFFSET 0.000000 -9.699830 19.151588
     CHANNELS 3 Yrotation Xrotation Zrotation
     End Site
     {
      OFFSET 0.000000 -1.292898 4.893873
     }
    }
   }
  }
 }
}
MOTION
Frames: 17
Frame Time: 0.016667
28.532207 100.698302 204.944407 57.413444 -10.558601 5.927962 0.195638 6.613431 2.487924 0.051289 2.940320 1.101054 0.051289 2.940320 1.101054 0.033157 2.205341 0.825363 -10.451765 29.030603 0.159393 -18.592212 18.256832 2.203837 6.528965 12.517064 5.658278 4.677851 -23.938580 80.292118 0.197677 18.675395 -11.871817 -0.881651 18.577381 -49.188074 -3.898356 9.783183 -7.314723 -9.789310 -17.981107 -79.362417 -3.043434 20.014561 -2.657891 9.902237 14.614453 -0.656604 -6.531659 15.064223 2.944999 -1.687316 1.448966 0.132559 -13.452873 -0.582844 -2.695093 0.000000 0.000000 0.000000 11.501033 -2.573141 2.823838 -2.480283 26.539380 0.230116 -5.661671 -2.951397 -4.136928 0.000000 0.000000 0.000000
28.532412 100.618600 204.495279 57.550075 -10.482998 5.935167 0.194819 6.639647 2.534046 0.050121 2.951986 1.121503 0.050120 2.951986 1.121503 0.032159 2.214091 0.840699 -10.476379 29.004289 0.135043 -18.632023 18.207041 2.168617 6.493511 12.399318 5.707724 4.787264 -23.765251 79.854042 0.240680 18.586845 -11.770124 -0.784891 18.532797 -49.175909 -3.914861 9.647448 -7.488807 -9.788262 -17.857640 -79.294874 -3.241594 19.737848 -2.641630 9.866006 14.644205 -0.674606 -6.510303 14.898662 2.850833 -2.039876 1.308741 0.067889 -13.285239 -0.656152 -2.773523 0.000000 -0.000000 0.000000 11.610774 -2.784496 2.617094 -2.318988 26.624112 0.803936 -6.066485 -3.010837 -4.730830 0.000000 0.000000 0.000000
28.532618 100.538898 204.046151 57.686683 -10.407411 5.942553 0.194086 6.665759 2.580238 0.048988 2.963606 1.141982 0.048988 2.963607 1.141982 0.031191 2.222806 0.856058 -10.501015 28.977994 0.110693 -18.671932 18.157324 2.133408 6.458310 12.281402 5.757086 4.894276 -23.590596 79.417301 0.283535 18.498476 -11.668303 -0.688207 18.488132 -49.163889 -3.931277 9.512051 -7.663113 -9.786931 -17.734351 -79.227097 -3.439862 19.461093 -2.625595 9.829827 14.673939 -0.692893 -6.488882 14.733352 2.756225 -2.392463 1.168955 0.003287 -13.117332 -0.729846 -2.851199 0.000000 0.000000 -0.000000 11.721219 -2.994912 2.409302 -2.157492 26.705495 1.378587 -6.470282 -3.073467 -5.324720 0.000000 0.000000 0.000000
28.533304 100.468019 203.598813 57.851483 -10.342865 5.936921 0.184334 6.692988 2.630376 0.043784 2.975670 1.164339 0.043784 2.975670 1.164339 0.027157 2.231846 0.872844 -10.521407 28.954924 0.092243 -18.705330 18.114021 2.107452 6.428771 12.151933 5.811333 4.979427 -23.405786 78.979373 0.334855 18.408581 -11.566828 -0.597504 18.445443 -49.141899 -3.948236 9.384436 -7.826098 -9.792934 -17.621651 -79.164306 -3.622266 19.178106 -2.605076 9.801836 14.687089 -0.700483 -6.473441 14.573592 2.661433 -2.721652 1.042176 -0.059278 -12.998310 -0.802643 -2.922483 0.000000 0.000000 0.000000 11.841607 -3.176872 2.247444 -1.952878 26.777758 1.883768 -6.839405 -3.194534 -5.824949 0.000000 0.000000 0.000000
28.534568 100.410399 203.155494 58.053508 -10.292769 5.912831 0.162602 6.721514 2.687520 0.033149 2.988244 1.189978 0.033149 2.988244 1.189977 0.019033 2.241257 0.892118 -10.536207 28.936256 0.081591 -18.730119 18.079438 2.093704 6.409284 11.999411 5.873663 5.037260 -23.193550 78.534396 0.409202 18.312993 -11.461539 -0.517488 18.401837 -49.109831 -3.966122 9.267431 -7.973457 -9.808977 -17.524452 -79.115396 -3.779212 18.875173 -2.573693 9.788583 14.663812 -0.684110 -6.464503 14.420615 2.567210 -3.018645 0.934616 -0.122164 -12.949353 -0.876212 -2.988241 -0.000000 -0.000000 0.000000 11.964393 -3.318243 2.155224 -1.688101 26.813612 2.274394 -7.230215 -3.394907 -6.218711 0.000000 0.000000 0.000000
28.536313 100.361603 202.713965 58.283694 -10.253548 5.875706 0.131878 6.751055 2.748686 0.018455 3.001213 1.217533 0.018455 3.001214 1.217533 0.007854 2.250959 0.912850 -10.546741 28.920792 0.076825 -18.748345 18.051220 2.089172 6.395416 11.835301 5.940605 5.073096 -22.971452 78.088375 0.491845 18.215639 -11.356774 -0.443429 18.360233 -49.067707 -3.984609 9.158172 -8.109486 -9.832506 -17.437736 -79.071535 -3.920444 18.566017 -2.537878 9.783220 14.623991 -0.656829 -6.461625 14.273290 2.472685 -3.292275 0.840277 -0.183381 -12.949450 -0.948553 -3.048292 0.000000 -0.000000 -0.000000 12.096543 -3.431785 2.109142 -1.380152 26.840373 2.595335 -7.586003 -3.649424 -6.519864 0.000000 0.000000 0.000000
28.538733 100.317144 202.269331 58.543105 -10.225695 5.828628 0.091976 6.782118 2.808721 -0.000312 3.014792 1.244722 -0.000312 3.014792 1.244722 -0.006379 2.261104 0.933327 -10.552745 28.908161 0.078116 -18.759604 18.028697 2.094161 6.379293 11.682672 6.007175 5.084318 -22.783214 77.656141 0.547498 18.127073 -11.265616 -0.367025 18.331416 -49.005591 -4.003314 9.055566 -8.235552 -9.863226 -17.357053 -79.011383 -4.058762 18.285553 -2.512078 9.774065 14.610658 -0.647118 -6.469423 14.133410 2.375656 -3.545628 0.753517 -0.234574 -12.984566 -1.012766 -3.095665 0.000000 -0.000000 0.000000 12.268881 -3.527294 2.085196 -1.035575 26.932770 2.913222 -7.704158 -3.941134 -6.676105 0.000000 0.000000 0.000000
28.542297 100.276278 201.820449 58.832175 -10.210880 5.772369 0.040468 6.815202 2.866507 -0.024216 3.029186 1.271086 -0.024216 3.029185 1.271086 -0.024463 2.271850 0.953212 -10.551899 28.899250 0.084825 -18.759627 18.013201 2.107023 6.356432 11.550191 6.072020 5.070979 -22.647988 77.241240 0.560184 18.048125 -11.196606 -0.275512 18.333562 -48.912426 -4.021228 8.958425 -8.351899 -9.899611 -17.279586 -78.927050 -4.198626 18.042384 -2.506988 9.754982 14.648012 -0.672950 -6.490866 14.002085 2.274118 -3.772385 0.675523 -0.271463 -13.055685 -1.067565 -3.126426 0.000000 -0.000000 -0.000000 12.504555 -3.607726 2.070671 -0.634421 27.123146 3.258392 -7.462100 -4.303652 -6.660085 0.000000 -0.000000 0.000000
28.546536 100.239749 201.368461 59.150517 -10.207215 5.706013 -0.020231 6.849777 2.923217 -0.052196 3.044177 1.297116 -0.052195 3.044178 1.297116 -0.045604 2.283035 0.972868 -10.546502 28.893138 0.097588 -18.752623 18.003309 2.129399 6.331222 11.429192 6.136612 5.034418 -22.547256 76.839225 0.545951 17.978264 -11.140983 -0.181457 18.348549 -48.799281 -4.039428 8.867899 -8.458273 -9.943112 -17.208248 -78.826486 -4.335110 17.827785 -2.511790 9.732500 14.711798 -0.716413 -6.522983 13.878338 2.170077 -3.978959 0.605132 -0.298426 -13.161968 -1.113887 -3.144921 0.000000 0.000000 0.000000 12.780338 -3.670541 2.078305 -0.192919 27.377208 3.605966 -6.984058 -4.709329 -6.510381 0.000000 0.000000 0.000000
28.550240 100.205310 200.911895 59.497966 -10.209858 5.630120 -0.083052 6.884835 2.977137 -0.081087 3.059352 1.321946 -0.081087 3.059352 1.321946 -0.067424 2.294351 0.991630 -10.543203 28.886721 0.118506 -18.750900 17.994228 2.166555 6.309061 11.316744 6.200263 4.974295 -22.468164 76.452737 0.517752 17.926197 -11.085757 -0.114731 18.332855 -48.689398 -4.060697 8.786431 -8.555306 -9.997826 -17.147259 -78.712105 -4.466939 17.650664 -2.508693 9.714086 14.772373 -0.752154 -6.561480 13.760833 2.067356 -4.187586 0.533218 -0.320065 -13.286591 -1.148286 -3.156458 0.000000 -0.000000 0.000000 13.057577 -3.717339 2.122211 0.228548 27.669696 3.940507 -6.437196 -5.049295 -6.269102 0.000000 0.000000 0.000000
28.552774 100.172623 200.450761 59.876732 -10.218114 5.543544 -0.148927 6.921336 3.028455 -0.111313 3.075132 1.345675 -0.111313 3.075130 1.345674 -0.090243 2.306115 1.009574 -10.543009 28.878835 0.150659 -18.756900 17.984463 2.224236 6.292010 11.217720 6.264391 4.880071 -22.421358 76.076283 0.500914 17.875461 -11.021274 -0.020894 18.236988 -48.469809 -4.087166 8.717193 -8.642031 -10.071220 -17.099981 -78.582665 -4.593472 17.518235 -2.490937 9.701062 14.820027 -0.774640 -6.598549 13.649698 1.970204 -4.410539 0.457178 -0.337459 -13.427476 -1.169057 -3.163646 0.000000 -0.000000 0.000000 13.329238 -3.749761 2.202792 0.621053 27.998701 4.271794 -5.827761 -5.279482 -5.909250 -0.000000 -0.000000 0.000000
28.554773 100.142027 199.985048 60.284656 -10.232366 5.447299 -0.216924 6.958306 3.077037 -0.142446 3.091096 1.368232 -0.142447 3.091095 1.368232 -0.113737 2.318016 1.026646 -10.544848 28.870546 0.191004 -18.768105 17.975430 2.296756 6.277918 11.127208 6.327519 4.762714 -22.396230 75.715232 0.470288 17.842632 -10.957228 0.044986 18.110820 -48.253324 -4.116796 8.657014 -8.719370 -10.155824 -17.063082 -78.439445 -4.715622 17.423275 -2.465400 9.691939 14.864493 -0.789317 -6.642053 13.544898 1.874309 -4.635640 0.379748 -0.349622 -13.586671 -1.177729 -3.164108 0.000000 -0.000000 0.000000 13.602351 -3.767546 2.320123 0.994729 28.366984 4.592709 -5.146232 -5.453666 -5.456086 0.000000 -0.000000 -0.000000
28.556924 100.112287 199.513258 60.714991 -10.249425 5.345250 -0.277186 6.991841 3.120658 -0.170057 3.105578 1.388484 -0.170057 3.105578 1.388484 -0.134574 2.328811 1.041973 -10.552272 28.862098 0.232461 -18.789443 17.966783 2.372241 6.265774 11.027595 6.384397 4.653578 -22.347295 75.388862 0.363839 17.886409 -10.909557 -0.109671 18.059960 -48.400616 -4.146131 8.598907 -8.790859 -10.233386 -17.030883 -78.288613 -4.834697 17.353078 -2.434943 9.689838 14.905337 -0.787238 -6.711183 13.444855 1.770715 -4.848465 0.299803 -0.358021 -13.753515 -1.175810 -3.155547 -0.000000 -0.000000 0.000000 13.859409 -3.769858 2.487944 1.315314 28.758974 4.859419 -4.536259 -5.600002 -5.020342 0.000000 0.000000 0.000000
28.560897 100.083342 199.036206 61.163772 -10.269473 5.239426 -0.326871 7.021195 3.158293 -0.192863 3.118262 1.405926 -0.192863 3.118262 1.405926 -0.151793 2.338267 1.055169 -10.568322 28.854823 0.272588 -18.825861 17.960997 2.446716 6.258589 10.908632 6.430876 4.571804 -22.261874 75.099348 0.132262 18.035979 -10.864912 -0.663867 18.051596 -49.052279 -4.174224 8.541067 -8.858768 -10.300273 -17.001280 -78.127498 -4.949673 17.316426 -2.400389 9.698016 14.947016 -0.758551 -6.814663 13.352314 1.655967 -5.043810 0.214970 -0.363951 -13.921785 -1.162961 -3.138006 0.000000 -0.000000 -0.000000 14.083990 -3.755265 2.708646 1.549809 29.182612 5.050174 -4.051313 -5.705735 -4.634521 -0.000000 -0.000000 0.000000
28.565022 100.055254 198.553077 61.635002 -10.292099 5.127702 -0.368854 7.047149 3.190926 -0.212159 3.129483 1.421038 -0.212160 3.129482 1.421037 -0.166365 2.346633 1.066600 -10.589968 28.847381 0.313851 -18.872476 17.955748 2.524158 6.253075 10.780588 6.470652 4.498152 -22.151737 74.844932 -0.173935 18.263207 -10.836702 -1.447773 18.100000 -50.064335 -4.202064 8.485392 -8.920938 -10.360252 -16.976835 -77.958759 -5.061880 17.304527 -2.361258 9.712973 14.985098 -0.713047 -6.943713 13.264682 1.533687 -5.226982 0.127527 -0.366086 -14.097700 -1.139427 -3.111552 0.000000 -0.000000 0.000000 14.292734 -3.727005 2.980438 1.728711 29.633517 5.186185 -3.636935 -5.778402 -4.261233 0.000000 0.000000 0.000000
28.564984 100.026975 198.059916 62.133855 -10.313230 5.007789 -0.401874 7.068092 3.219290 -0.227380 3.138542 1.434124 -0.227380 3.138542 1.434124 -0.177865 2.353389 1.076493 -10.611729 28.836025 0.356470 -18.919617 17.943494 2.604532 6.238757 10.656615 6.510243 4.406107 -22.008007 74.639260 -0.467865 18.539829 -10.881575 -2.140165 18.384802 -51.381899 -4.229106 8.430483 -8.974368 -10.406231 -16.959030 -77.796540 -5.176167 17.278334 -2.318604 9.727758 15.005827 -0.671275 -7.091258 13.172425 1.405507 -5.399311 0.043264 -0.361937 -14.289305 -1.107594 -3.073905 0.000000 0.000000 0.000000 14.517808 -3.691815 3.310669 1.911871 30.078578 5.286875 -3.277348 -5.870843 -3.906225 -0.000000 -0.000000 0.000000
28.558694 99.998424 197.555719 62.656551 -10.331689 4.879800 -0.421256 7.083611 3.243853 -0.236459 3.145287 1.445319 -0.236459 3.145289 1.445321 -0.184746 2.358426 1.084937 -10.634713 28.819653 0.399390 -18.969176 17.922174 2.686357 6.210658 10.534764 6.552775 4.323310 -21.827344 74.480922 -0.783735 18.824024 -11.054776 -2.692525 19.078415 -53.196788 -4.255768 8.373251 -9.016389 -10.433866 -16.951719 -77.646321 -5.287096 17.226604 -2.273161 9.740405 14.999152 -0.641142 -7.255748 13.070157 1.270317 -5.556185 -0.031436 -0.349967 -14.497941 -1.069083 -3.023520 0.000000 0.000000 0.000000 14.750812 -3.651585 3.703550 2.115196 30.520338 5.363120 -3.011398 -6.015985 -3.597103 0.000000 0.000000 0.000000
